<svg width="1209" height="520" viewBox="0 0 1209 520" fill="none" xmlns="http://www.w3.org/2000/svg">
<g id="Group 1">
<path id="SAT" d="M671.438 277.594C645.708 270.198 626.958 261.135 615.188 250.406C603.521 239.573 597.688 226.24 597.688 210.406C597.688 192.49 604.823 177.698 619.094 166.031C633.469 154.26 652.115 148.375 675.031 148.375C690.656 148.375 704.562 151.396 716.75 157.438C729.042 163.479 738.521 171.812 745.188 182.438C751.958 193.062 755.344 204.677 755.344 217.281H725.188C725.188 203.531 720.812 192.75 712.062 184.938C703.312 177.021 690.969 173.062 675.031 173.062C660.24 173.062 648.677 176.344 640.344 182.906C632.115 189.365 628 198.375 628 209.938C628 219.208 631.906 227.073 639.719 233.531C647.635 239.885 661.021 245.719 679.875 251.031C698.833 256.344 713.625 262.229 724.25 268.688C734.979 275.042 742.896 282.49 748 291.031C753.208 299.573 755.812 309.625 755.812 321.188C755.812 339.625 748.625 354.417 734.25 365.562C719.875 376.604 700.656 382.125 676.594 382.125C660.969 382.125 646.385 379.156 632.844 373.219C619.302 367.177 608.833 358.948 601.438 348.531C594.146 338.115 590.5 326.292 590.5 313.062H620.656C620.656 326.812 625.708 337.698 635.812 345.719C646.021 353.635 659.615 357.594 676.594 357.594C692.427 357.594 704.562 354.365 713 347.906C721.438 341.448 725.656 332.646 725.656 321.5C725.656 310.354 721.75 301.76 713.938 295.719C706.125 289.573 691.958 283.531 671.438 277.594ZM920.031 319.625H824.719L803.312 379H772.375L859.25 151.5H885.5L972.531 379H941.75L920.031 319.625ZM833.781 294.938H911.125L872.375 188.531L833.781 294.938ZM1140.03 176.188H1066.91V379H1037.06V176.188H964.094V151.5H1140.03V176.188Z" fill="black"/>
<circle id="Ellipse 1" cx="126.5" cy="126.5" r="126.5" fill="#4285CA"/>
<circle id="Ellipse 4" cx="396.5" cy="393.5" r="126.5" fill="#4285CA"/>
<circle id="Ellipse 3" cx="126.5" cy="391.5" r="126.5" fill="#4285CA"/>
<circle id="Ellipse 2" cx="396.5" cy="126.5" r="126.5" fill="#4285CA"/>
</g>
</svg>
